<?xml version="1.0" standalone="no"?>
<!DOCTYPE svg PUBLIC "-//W3C//DTD SVG 20010904//EN"
 "http://www.w3.org/TR/2001/REC-SVG-20010904/DTD/svg10.dtd">
<svg version="1.0" xmlns="http://www.w3.org/2000/svg"
 width="675.000000pt" height="675.000000pt" viewBox="0 0 675.000000 675.000000"
 preserveAspectRatio="xMidYMid meet">
<metadata>
Created by potrace 1.10, written by Peter Selinger 2001-2011
</metadata>
<g transform="translate(0.000000,675.000000) scale(0.100000,-0.100000)"
fill="#000000" stroke="none">
<path d="M3715 5919 c-60 -5 -139 -15 -175 -23 -36 -8 -83 -18 -105 -21 -22
-4 -51 -10 -65 -14 -14 -5 -59 -19 -100 -31 -84 -26 -156 -55 -215 -86 -115
-61 -160 -87 -163 -95 -2 -5 -9 -9 -16 -9 -7 0 -24 -9 -37 -20 -13 -11 -28
-23 -34 -28 -5 -4 -26 -19 -45 -32 -53 -38 -167 -156 -210 -220 -8 -12 -20
-28 -25 -34 -20 -22 -115 -221 -115 -241 0 -12 -4 -25 -10 -31 -18 -18 -33
-107 -39 -239 -6 -128 -6 -131 -41 -180 -19 -27 -43 -58 -52 -69 -10 -11 -30
-38 -45 -60 -30 -44 -58 -79 -85 -108 -10 -10 -18 -21 -18 -24 0 -8 -60 -86
-78 -101 -23 -19 -6 -56 37 -80 30 -17 47 -38 71 -89 31 -62 32 -71 27 -143
-5 -67 -16 -108 -47 -176 -5 -11 -19 -45 -30 -75 -11 -30 -25 -64 -30 -75 -5
-11 -18 -42 -30 -70 -11 -27 -25 -58 -30 -67 -15 -28 -29 -139 -23 -191 5 -39
3 -47 -11 -47 -9 0 -16 4 -16 9 0 5 -13 12 -30 16 -16 4 -32 11 -35 16 -9 13
-127 10 -145 -4 -8 -7 -23 -25 -33 -40 -45 -70 19 -307 83 -307 11 0 23 -8 29
-17 12 -23 74 -22 100 1 22 20 41 14 41 -13 0 -19 52 -75 125 -136 27 -22 57
-48 67 -57 10 -10 22 -18 27 -18 5 0 23 -21 41 -47 31 -48 31 -48 27 -153 -3
-58 -10 -129 -17 -159 -19 -89 -9 -113 58 -147 31 -16 70 -31 86 -34 59 -10
36 -26 -56 -38 -122 -16 -153 -15 -208 5 -56 21 -104 51 -154 96 -38 34 -56
39 -56 15 0 -19 125 -132 171 -155 44 -22 53 -23 230 -16 164 5 186 4 198 -11
22 -27 31 -19 31 28 0 43 12 67 24 47 3 -5 3 -36 0 -68 l-6 -60 -57 10 c-56 9
-358 3 -369 -8 -15 -14 21 -25 95 -28 90 -3 106 -9 73 -27 -26 -14 -24 -53 3
-58 10 -2 33 3 52 12 18 9 44 16 57 16 13 0 35 11 50 25 l27 24 30 -26 c38
-34 39 -47 2 -84 -34 -33 -61 -30 -61 7 0 21 -5 24 -35 24 -27 0 -44 -9 -79
-44 -25 -23 -55 -63 -67 -87 -28 -52 -103 -128 -150 -151 -97 -47 -114 -52
-199 -51 -77 1 -91 4 -153 36 -38 20 -77 46 -88 59 -10 13 -23 28 -27 34 -5 5
-15 20 -21 32 -14 27 -31 20 -31 -12 0 -22 21 -47 85 -101 50 -43 54 -45 68
-45 8 0 20 -7 27 -15 7 -8 28 -15 47 -15 18 0 44 -7 58 -16 21 -14 28 -14 70
0 25 9 58 16 73 16 15 0 36 7 46 15 11 8 26 15 33 15 17 0 28 9 111 90 67 66
84 86 102 128 12 29 18 28 31 -5 8 -22 12 -24 19 -13 6 8 10 23 10 32 0 21 19
33 31 21 6 -6 4 -26 -6 -54 -9 -24 -19 -55 -22 -69 -3 -14 -11 -29 -17 -35 -7
-5 -17 -19 -24 -30 -10 -19 -11 -19 -18 -1 -4 11 0 29 10 46 18 31 21 70 6 70
-6 0 -13 -8 -16 -17 -3 -10 -12 -30 -20 -45 -16 -29 -19 -88 -5 -88 5 0 13
-12 19 -27 5 -16 24 -44 42 -63 28 -31 37 -35 82 -35 58 0 67 -11 39 -44 -43
-49 -37 -168 13 -273 33 -70 48 -90 131 -173 76 -77 159 -124 255 -146 106
-24 392 -9 424 22 6 5 17 9 25 9 9 1 34 9 56 20 22 11 46 19 53 20 7 0 20 4
30 9 30 15 86 38 142 60 70 28 101 41 120 52 8 4 40 20 70 36 30 15 95 51 143
80 48 29 90 53 94 53 13 0 188 113 258 167 6 4 37 26 70 48 72 47 237 188 356
303 60 58 97 104 120 149 30 59 34 74 34 147 0 73 -16 154 -45 221 -5 11 -19
54 -31 95 -12 41 -26 82 -30 90 -11 21 -49 150 -49 167 0 11 94 63 114 63 8 0
110 63 145 90 53 40 100 85 129 124 15 19 54 68 87 108 62 74 135 187 135 207
0 6 5 11 10 11 6 0 10 5 10 11 0 6 15 43 34 82 19 40 58 122 86 182 29 61 65
144 79 185 15 41 30 80 33 85 3 6 9 28 13 50 4 22 11 45 16 50 9 12 24 68 44
165 25 123 15 513 -14 569 -6 11 -11 30 -11 44 0 26 -35 151 -51 179 -5 10 -9
23 -9 30 -1 7 -9 31 -20 53 -11 22 -19 46 -20 53 0 6 -4 12 -10 12 -5 0 -10 7
-10 16 0 9 -13 39 -30 66 -16 26 -30 52 -30 56 0 4 -7 17 -15 27 -8 11 -51 70
-96 130 -134 180 -315 343 -499 449 -36 21 -72 42 -80 47 -37 22 -162 79 -175
79 -7 0 -16 4 -19 9 -3 4 -25 11 -48 15 -23 4 -47 11 -53 16 -6 5 -31 14 -55
20 -25 6 -72 18 -105 26 -152 39 -422 58 -600 43z m485 -111 c150 -31 186 -39
240 -54 30 -9 64 -19 75 -24 11 -5 45 -19 75 -31 102 -40 125 -50 182 -79 207
-105 324 -226 344 -355 9 -61 -1 -95 -27 -95 -16 0 -19 -4 -15 -17 8 -19 -9
-33 -43 -33 -18 0 -22 -4 -16 -17 4 -10 9 -46 12 -79 6 -63 5 -64 -46 -160
-21 -40 -20 -79 2 -71 7 2 14 14 17 27 3 13 13 28 23 34 14 9 25 2 65 -37 26
-26 51 -44 55 -41 10 10 9 42 -1 46 -4 2 -25 31 -45 64 -39 66 -46 108 -22
140 8 10 15 27 15 37 0 20 20 23 38 5 6 -6 15 -9 19 -5 4 4 1 13 -5 19 -16 16
-15 56 1 73 8 7 30 18 50 23 57 16 98 -1 151 -61 63 -71 66 -75 66 -86 0 -5 6
-16 13 -23 23 -26 53 -82 97 -183 20 -47 41 -136 52 -220 16 -125 22 -471 9
-515 -6 -20 -15 -65 -21 -100 -22 -137 -35 -205 -41 -215 -4 -5 -10 -31 -13
-58 -4 -26 -14 -59 -22 -75 -7 -15 -14 -35 -14 -44 0 -9 -4 -19 -9 -23 -5 -3
-12 -19 -16 -36 -4 -17 -13 -42 -21 -57 -8 -15 -14 -35 -14 -44 0 -10 -4 -18
-10 -18 -5 0 -10 -6 -10 -12 -1 -41 -151 -291 -263 -438 -78 -101 -153 -166
-337 -290 -12 -8 -31 -23 -42 -32 -25 -22 -47 -9 -42 25 2 12 8 53 14 91 9 59
9 80 -6 135 -17 66 -68 150 -91 151 -22 0 -25 -20 -8 -47 21 -31 44 -123 45
-173 0 -43 -23 -119 -47 -157 -36 -56 -117 -116 -171 -128 -18 -3 -34 -11 -37
-16 -9 -13 -35 -11 -35 4 1 6 28 41 61 77 73 79 69 84 -68 93 -84 6 -100 10
-114 28 l-16 22 -16 -23 c-15 -21 -14 -24 16 -54 31 -31 33 -31 83 -22 52 9
84 4 84 -12 0 -5 -13 -25 -30 -43 -16 -19 -30 -38 -30 -42 0 -17 -256 -263
-310 -299 -30 -20 -66 -45 -80 -57 -14 -11 -29 -24 -35 -29 -5 -4 -45 -29 -88
-55 -63 -38 -79 -44 -84 -31 -6 17 22 48 59 65 60 26 113 66 128 94 9 16 22
25 37 25 15 0 44 19 75 48 28 26 66 61 85 78 44 42 42 54 -9 54 -35 0 -160 6
-202 9 -4 1 -6 10 -3 20 3 14 -2 21 -17 25 -20 5 -20 6 -3 23 16 17 19 17 51
-1 36 -19 91 -34 161 -43 22 -3 44 -9 49 -14 18 -17 34 -9 57 29 13 20 27 39
31 40 14 6 8 32 -7 32 -8 0 -15 -4 -15 -8 0 -5 -18 -17 -40 -27 -66 -30 -166
-2 -240 67 -19 18 -45 39 -58 46 -33 17 -87 15 -102 -3 -7 -8 -17 -15 -22 -15
-15 0 -69 -61 -65 -73 2 -7 26 -12 55 -13 28 -1 58 -7 67 -14 20 -17 20 -70 0
-70 -8 0 -15 4 -15 8 0 12 -67 42 -94 42 -12 0 -43 -11 -67 -25 -24 -13 -58
-31 -76 -40 -17 -9 -33 -26 -37 -37 -4 -18 -7 -19 -21 -8 -55 45 -54 134 1
194 18 20 38 36 43 36 6 0 11 4 11 8 0 16 76 40 148 47 64 6 75 10 90 34 9 14
20 29 25 32 10 7 27 137 33 264 5 79 3 93 -13 107 -31 27 -60 31 -80 10 -10
-10 -26 -22 -35 -25 -29 -10 -21 -27 12 -27 17 0 30 4 30 9 0 11 43 22 51 13
13 -14 -24 -293 -46 -346 -15 -36 -17 -36 -62 -33 -61 6 -77 27 -42 56 13 11
39 25 57 31 34 12 40 31 21 73 -22 49 -100 71 -163 47 -26 -10 -36 -43 -16
-55 15 -9 12 -30 -8 -55 -23 -28 -51 -21 -75 19 -23 39 -22 74 3 96 23 21 89
47 101 39 13 -8 58 18 74 42 17 27 3 43 -21 23 -8 -6 -31 -15 -52 -20 -113
-23 -152 -59 -152 -136 0 -40 5 -54 30 -81 32 -35 39 -69 16 -78 -8 -3 -17
-16 -20 -30 -4 -13 -11 -24 -16 -24 -6 0 -10 -6 -10 -14 0 -21 -45 -46 -83
-46 -28 0 -41 8 -68 40 -19 22 -40 40 -46 40 -16 0 -17 -26 -2 -36 6 -3 9 -28
7 -58 l-3 -51 33 3 c17 1 32 -1 33 -5 7 -69 3 -125 -8 -134 -7 -7 -13 -18 -13
-25 0 -8 -7 -14 -15 -14 -8 0 -15 9 -15 20 0 12 -10 25 -25 32 -14 6 -25 15
-25 20 0 4 -13 8 -30 8 -16 0 -30 -4 -30 -10 0 -5 -6 -10 -14 -10 -7 0 -20 -9
-27 -21 -9 -13 -20 -18 -31 -14 -19 8 -25 50 -8 60 6 3 10 15 10 25 0 10 7 26
16 35 9 8 18 34 21 56 3 22 10 42 14 45 17 10 8 38 -27 80 -41 51 -61 54 -95
17 -55 -63 -62 -101 -25 -147 20 -24 29 -28 52 -22 28 7 28 7 10 -13 -11 -12
-25 -21 -33 -21 -16 0 -16 -5 -3 -30 14 -26 -1 -33 -54 -25 -25 4 -54 17 -69
31 -40 37 -76 32 -132 -21 -48 -45 -70 -51 -47 -15 7 11 12 29 12 40 0 26 -30
60 -53 60 -10 0 -27 10 -36 22 -10 12 -23 18 -29 14 -21 -13 -13 -50 18 -83
22 -23 30 -42 30 -67 0 -41 1 -41 -36 -21 -44 22 -53 2 -16 -36 35 -36 40 -56
17 -65 -16 -6 -21 -44 -6 -44 5 0 16 -11 25 -24 14 -23 14 -26 -4 -48 l-19
-23 -20 45 c-11 25 -21 62 -21 83 0 21 -8 49 -17 63 -13 21 -14 30 -5 45 17
26 15 39 -5 39 -24 0 -63 43 -63 68 0 11 -7 22 -15 26 -8 3 -15 16 -15 30 0
14 -4 27 -9 30 -12 8 -38 92 -45 151 -12 101 -36 144 -106 197 -103 76 -150
119 -166 150 -18 35 -32 28 -40 -20 -10 -63 -58 -104 -134 -117 -25 -4 -49
-11 -55 -15 -5 -4 -20 -11 -32 -14 -33 -10 -99 57 -106 109 -3 22 -10 68 -16
103 -8 59 -7 65 14 88 18 19 32 24 73 24 35 0 52 -4 56 -15 3 -8 12 -15 20
-15 8 0 21 -6 28 -13 7 -6 37 -23 66 -36 66 -31 85 -20 59 34 -19 39 -24 210
-8 243 43 87 58 114 84 143 57 67 72 86 95 117 12 17 22 35 22 41 0 5 4 11 9
13 10 4 101 272 101 299 0 10 -5 21 -10 24 -18 11 -44 -26 -66 -92 -11 -35
-24 -64 -30 -64 -5 1 -10 24 -12 53 -2 29 -7 57 -13 62 -5 6 -9 17 -9 27 0 9
-27 46 -60 82 -69 74 -75 102 -32 141 90 83 114 108 162 171 29 39 86 102 127
141 77 75 81 91 17 80 -24 -5 -34 -3 -35 6 -4 38 4 144 11 153 4 6 11 32 15
59 3 27 10 56 15 65 5 9 18 45 30 81 57 168 104 254 190 341 41 42 98 91 125
110 28 19 52 36 55 39 21 21 328 170 350 170 5 0 18 4 28 10 27 16 219 60 320
75 51 7 96 16 100 19 13 13 485 -1 562 -16z m-2015 -2842 c22 -20 43 -36 47
-36 4 0 25 -17 47 -38 26 -25 42 -50 46 -75 4 -20 11 -40 16 -43 10 -6 13 -54
4 -54 -3 0 -17 12 -31 28 -64 69 -117 122 -124 122 -4 0 -25 16 -46 35 -22 19
-42 35 -46 35 -11 0 -10 24 2 55 11 30 22 27 85 -29z m-84 -83 c35 -27 71 -54
79 -60 8 -7 36 -30 61 -50 26 -21 55 -45 65 -54 28 -24 74 -78 74 -87 0 -5 9
-19 20 -32 11 -13 20 -31 20 -40 0 -10 7 -20 15 -24 8 -3 15 -17 15 -31 0 -14
4 -25 9 -25 5 0 12 -16 15 -35 4 -19 11 -35 16 -35 6 0 10 -6 10 -14 0 -7 9
-42 20 -76 27 -84 27 -175 1 -190 -11 -5 -24 -10 -29 -10 -19 0 -34 59 -38
149 -2 67 -7 98 -18 110 -9 10 -16 29 -16 43 0 14 -7 28 -15 32 -8 3 -15 12
-15 19 0 18 -29 77 -38 77 -4 0 -18 17 -32 38 -29 43 -95 110 -166 167 -65 53
-154 141 -154 152 0 13 11 23 24 23 6 0 41 -21 77 -47z m1527 -110 c-7 -17
-42 -62 -77 -99 -105 -115 -111 -122 -111 -137 0 -8 -7 -20 -15 -27 -8 -7 -17
-28 -20 -49 -3 -20 -10 -44 -16 -53 -14 -27 -11 -94 6 -108 8 -7 15 -19 15
-27 0 -8 13 -22 30 -31 16 -9 30 -20 30 -24 0 -5 24 -8 53 -8 63 0 101 -29 95
-74 -3 -30 -21 -36 -27 -9 -8 43 -30 53 -112 51 -65 -3 -80 0 -99 17 l-22 20
-33 -39 c-25 -30 -31 -45 -25 -60 4 -12 4 -33 -1 -49 -6 -21 -4 -29 7 -34 7
-3 14 -11 14 -19 0 -8 7 -14 15 -14 8 0 15 -7 15 -15 0 -8 -7 -15 -15 -15 -8
0 -15 5 -15 11 0 15 -42 48 -62 49 -9 0 -20 -4 -23 -10 -3 -5 -25 -10 -48 -10
l-42 0 54 31 c29 17 49 34 45 39 -10 9 -162 20 -181 13 -8 -3 -13 -22 -13 -44
0 -53 -16 -49 -25 6 -4 32 -2 54 9 77 9 17 16 39 16 48 0 10 6 23 14 29 7 6
16 34 18 62 3 28 9 54 14 58 15 10 54 69 54 81 0 22 34 8 70 -28 31 -30 40
-50 49 -97 13 -71 13 -65 1 -65 -15 0 -51 42 -62 73 -18 48 -48 29 -48 -31 0
-34 9 -48 38 -56 13 -4 22 -15 22 -27 0 -16 -7 -19 -54 -19 -30 0 -58 5 -61
10 -4 6 -11 8 -16 5 -5 -4 -2 -17 7 -31 14 -21 24 -24 71 -24 53 0 57 2 103
50 44 46 48 54 54 115 4 36 4 70 1 75 -3 5 4 26 15 47 11 21 20 45 20 54 0 30
54 123 100 170 36 38 70 79 70 86 1 12 63 78 85 91 25 14 29 4 13 -35z m-550
-102 c29 -24 28 -33 -7 -54 -33 -19 -40 -20 -60 -8 -11 7 -10 14 5 37 15 23
33 43 40 44 1 0 11 -8 22 -19z m777 -62 c8 -24 -8 -39 -42 -39 -30 0 -38 18
-17 41 23 25 51 24 59 -2z m815 -65 c0 -9 13 -57 29 -107 16 -51 36 -114 44
-142 25 -81 38 -118 56 -154 11 -25 16 -63 16 -135 l0 -101 -42 -55 c-46 -61
-75 -91 -148 -151 -27 -22 -59 -49 -70 -58 -64 -53 -243 -187 -325 -242 -52
-35 -97 -66 -100 -69 -7 -9 -109 -70 -116 -70 -3 0 -38 -20 -77 -43 -77 -47
-400 -207 -417 -207 -6 0 -18 -4 -28 -10 -27 -15 -85 -38 -112 -45 -14 -3 -34
-10 -45 -15 -36 -16 -118 -32 -215 -42 -110 -11 -319 -5 -329 9 -3 6 -17 14
-31 18 -48 15 -120 113 -120 163 0 26 -38 91 -81 141 -45 51 -48 73 -15 135
13 25 32 68 41 96 15 47 15 53 0 93 -9 24 -27 56 -41 70 -13 14 -24 30 -24 36
0 11 67 71 80 71 20 0 21 -22 1 -27 -12 -3 -21 -12 -21 -19 0 -17 85 -20 95
-4 3 6 14 10 24 10 15 0 17 -7 13 -54 -5 -64 10 -99 41 -94 16 2 22 9 21 28
-2 30 13 41 43 33 32 -7 73 5 73 21 0 8 -15 18 -32 21 -38 8 -60 23 -52 36 7
12 81 11 89 -1 9 -15 57 -12 79 5 29 22 32 20 62 -30 24 -43 46 -56 58 -36 6
9 -13 73 -24 81 -16 12 -43 70 -36 77 4 4 11 1 16 -7 7 -11 14 -12 32 -3 13 6
43 10 68 10 38 -2 45 -5 45 -22 0 -17 -8 -21 -54 -25 -65 -6 -75 -21 -25 -36
29 -10 46 -9 81 3 60 21 74 8 71 -66 -1 -34 4 -66 13 -81 23 -40 76 -90 95
-90 9 0 51 -35 93 -78 42 -43 89 -83 104 -90 38 -16 89 -15 123 3 16 8 37 15
47 15 9 0 17 4 17 9 0 5 9 12 19 16 10 3 22 13 25 23 3 9 15 31 26 47 11 17
24 41 30 55 6 14 16 38 23 53 15 36 44 42 120 27 106 -21 207 -24 220 -7 7 9
21 17 32 19 33 6 41 49 17 99 -11 24 -23 51 -26 59 -3 8 -11 23 -18 32 -10 14
-9 20 5 36 24 26 21 48 -10 92 -21 29 -37 40 -65 44 -50 8 -115 -3 -122 -20
-3 -8 -15 -14 -26 -14 -11 0 -23 -7 -26 -15 -4 -9 -19 -15 -39 -15 -19 0 -36
-4 -39 -9 -3 -4 -27 -11 -52 -14 -28 -3 -51 -11 -56 -21 -5 -9 -18 -16 -29
-16 -29 0 -58 -39 -59 -76 0 -24 11 -42 47 -77 l47 -46 -35 -51 c-19 -27 -39
-50 -46 -50 -6 0 -13 -3 -15 -7 -6 -14 -67 -53 -83 -53 -8 0 -15 -7 -15 -15 0
-10 10 -15 29 -15 16 0 34 7 41 15 7 8 17 15 23 15 11 0 34 24 91 93 21 26 45
47 52 47 20 0 17 -33 -6 -60 -11 -13 -20 -31 -20 -41 0 -10 -4 -21 -10 -24 -5
-3 -10 -15 -10 -25 0 -23 -70 -80 -98 -80 -12 0 -24 -4 -27 -10 -8 -13 -82
-13 -90 0 -3 6 -15 10 -27 10 -11 0 -22 8 -25 20 -3 11 -9 20 -13 20 -5 0 -11
9 -15 19 -6 19 -104 91 -124 91 -5 0 -21 11 -35 24 -22 19 -26 33 -26 77 -1
30 -9 83 -19 119 -17 58 -21 65 -42 63 -21 -2 -22 -1 -6 8 24 14 13 53 -30 95
-37 37 -69 43 -88 17 -12 -16 -15 -16 -32 -2 -10 9 -35 19 -55 23 -38 7 -50
27 -26 42 6 4 50 7 97 6 84 -1 87 -2 114 -34 49 -58 66 -87 120 -211 9 -21 17
-50 17 -66 0 -18 12 -40 35 -64 30 -30 43 -37 76 -37 33 0 41 -4 49 -25 5 -14
14 -25 19 -25 5 0 11 -9 14 -20 6 -23 27 -27 27 -6 0 22 -34 76 -47 76 -7 0
-13 4 -13 9 0 5 -17 18 -37 28 -79 38 -80 108 -2 185 41 40 55 48 86 48 26 0
45 8 64 26 17 16 43 28 69 31 41 6 124 44 135 63 3 5 11 7 18 4 7 -2 33 15 58
38 24 24 57 49 73 56 26 12 31 11 55 -16 14 -16 37 -33 50 -37 22 -7 23 -5 16
16 -22 70 -17 139 10 139 8 0 27 12 42 26 26 25 28 30 25 101 l-3 75 53 52
c45 45 63 55 123 71 39 10 75 22 80 26 6 4 24 9 40 11 23 2 30 -1 29 -14 0
-10 -1 -49 -2 -88 l-2 -69 -37 -7 c-62 -11 -152 -111 -138 -153 8 -25 23 -30
111 -33 47 -2 76 1 87 10 17 14 57 132 57 168 0 13 4 26 10 29 5 3 12 28 16
56 4 27 11 52 15 55 5 3 9 27 9 53 0 26 3 51 6 54 10 10 24 -2 24 -19z m-2277
-180 c3 -43 9 -94 13 -111 11 -53 -19 -54 -68 -4 l-40 42 7 67 c4 37 11 75 16
84 5 9 9 26 9 37 0 10 6 21 13 24 21 7 43 -56 50 -139z m1501 97 c-10 -24 -7
-50 11 -88 9 -19 14 -37 12 -40 -9 -8 -27 7 -27 23 0 9 -7 22 -15 30 -15 16
-20 69 -9 98 5 13 9 14 21 5 8 -7 11 -19 7 -28z m-1024 -17 c30 -35 31 -37 14
-56 -13 -14 -28 -18 -58 -16 -36 3 -41 6 -44 30 -3 29 25 77 44 78 7 0 26 -16
44 -36z m903 9 c9 -3 17 -10 17 -15 0 -6 23 -38 50 -73 54 -67 63 -104 33
-137 -9 -10 -24 -18 -33 -18 -9 0 -20 -4 -26 -9 -5 -5 -42 -11 -83 -14 -70 -4
-75 -3 -106 24 -18 16 -43 29 -55 29 -28 0 -21 24 8 28 18 3 22 10 22 42 0 21
4 41 9 44 4 3 11 19 15 36 3 17 20 44 37 59 28 26 35 28 63 19 17 -5 39 -12
49 -15z m-785 -84 c2 -34 -2 -51 -18 -69 -12 -14 -30 -36 -40 -50 -23 -31 -37
-20 -46 37 -5 36 -3 45 20 68 14 14 26 29 26 33 0 15 25 33 40 30 10 -2 16
-18 18 -49z m602 27 c0 -13 -6 -29 -14 -36 -8 -6 -16 -21 -18 -32 -2 -12 -9
-23 -15 -26 -20 -6 -17 77 2 84 8 4 15 12 15 20 0 8 7 14 15 14 9 0 15 -9 15
-24z m-120 -40 c0 -25 5 -48 10 -51 6 -3 10 -17 10 -31 0 -24 -1 -24 -25 -8
-39 26 -48 134 -10 134 11 0 15 -12 15 -44z m-732 22 c-5 -15 -48 -24 -48 -10
0 14 12 22 33 22 10 0 17 -5 15 -12z m296 -143 c-10 -31 -23 -54 -29 -52 -12
5 -8 68 5 81 6 6 10 29 10 51 0 57 13 66 24 16 7 -32 5 -54 -10 -96z m-256 68
c4 -26 -48 -86 -65 -75 -6 4 -14 19 -18 33 -5 22 -1 29 27 47 39 24 52 23 56
-5z m75 -23 c15 -32 18 -62 16 -170 -1 -72 -5 -133 -10 -135 -13 -8 -17 24
-17 130 -1 68 -6 112 -16 137 -32 76 -7 111 27 38z m1087 19 c0 -11 -4 -17
-10 -14 -5 3 -10 13 -10 21 0 8 5 14 10 14 6 0 10 -9 10 -21z m490 -74 c0 -8
-4 -15 -10 -15 -5 0 -10 7 -10 15 0 8 5 15 10 15 6 0 10 -7 10 -15z m-350 -36
c0 -12 -27 -11 -35 1 -11 17 5 32 21 19 8 -6 14 -15 14 -20z m-80 -26 c0 -10
-32 -43 -42 -43 -12 0 -10 24 4 38 13 13 38 16 38 5z m-1309 -25 c27 17 49 0
49 -37 l0 -26 -19 24 -19 24 -11 -22 c-14 -25 -31 -19 -31 10 0 10 -4 19 -10
19 -5 0 -10 8 -10 18 1 15 2 15 16 -3 12 -17 17 -18 35 -7z m717 -20 c26 -4
31 -21 7 -26 -20 -5 -55 26 -55 47 1 14 2 14 13 -1 7 -9 23 -18 35 -20z m310
24 c10 -7 9 -15 -4 -40 -21 -42 -108 -132 -128 -132 -21 0 -20 12 2 31 45 40
92 100 92 117 0 30 14 39 38 24z m-218 -48 c0 -16 -16 -19 -25 -4 -8 13 4 32
16 25 5 -4 9 -13 9 -21z m420 11 c0 -8 -4 -15 -9 -15 -13 0 -22 16 -14 24 11
11 23 6 23 -9z m-1292 -20 c-2 -14 -7 -26 -13 -26 -5 0 -11 12 -13 26 -2 18 1
25 13 25 12 0 15 -7 13 -25z m930 13 c-6 -18 -28 -21 -28 -4 0 9 7 16 16 16 9
0 14 -5 12 -12z m302 -39 c0 -10 -4 -19 -9 -19 -12 0 -23 29 -15 41 8 14 24 0
24 -22z m-1103 -1 c16 -20 24 -76 12 -84 -6 -3 -20 3 -31 14 -15 15 -19 27
-13 51 7 33 17 39 32 19z m373 -8 c0 -15 -33 -50 -42 -44 -13 8 -9 42 5 47 21
9 37 7 37 -3z m810 5 c0 -14 -90 -94 -95 -85 -11 18 51 90 78 90 9 0 17 -2 17
-5z m-1297 -51 c23 -31 15 -57 -15 -52 -23 3 -35 35 -24 64 8 20 18 17 39 -12z
m763 11 c7 -17 34 -21 34 -5 0 6 7 10 16 10 32 0 10 -42 -33 -64 -23 -11 -44
-28 -48 -36 -27 -66 -48 -75 -53 -22 -2 24 2 34 15 39 25 9 73 45 73 55 0 4
-9 8 -19 8 -24 0 -36 16 -19 23 22 9 28 7 34 -8z m-456 -65 c0 -6 -8 -10 -18
-10 -10 0 -23 -5 -29 -11 -21 -21 -25 10 -6 50 l18 38 18 -29 c9 -16 17 -33
17 -38z m310 40 c0 -5 -7 -10 -15 -10 -8 0 -15 5 -15 10 0 6 7 10 15 10 8 0
15 -4 15 -10z m530 -21 c0 -12 -8 -23 -19 -26 -11 -3 -22 -11 -25 -19 -6 -16
-42 -19 -50 -5 -10 16 4 36 37 52 45 23 57 22 57 -2z m-475 -8 c3 -5 1 -12 -4
-15 -12 -8 -41 3 -41 15 0 12 37 12 45 0z m-458 -69 c23 -7 48 -6 89 4 32 7
59 12 60 11 1 -1 4 -12 8 -24 6 -20 3 -21 -97 -28 -101 -7 -104 -6 -158 22
-36 19 -55 35 -57 50 l-3 22 63 -23 c35 -13 77 -28 95 -34z m786 44 c7 -18 -3
-56 -14 -56 -5 0 -9 -7 -9 -15 0 -23 -16 -18 -35 11 -20 30 -14 51 17 64 32
12 35 12 41 -4z m-147 -24 c35 -29 35 -47 -1 -86 -18 -20 -37 -36 -42 -36 -21
0 -42 27 -48 62 -7 34 -5 39 26 57 41 25 39 25 65 3z m695 -59 c6 -16 9 -44 6
-64 -3 -20 1 -46 9 -60 7 -13 13 -39 14 -56 0 -18 5 -33 10 -33 6 0 10 -13 10
-30 0 -34 -30 -56 -64 -45 -11 4 -77 11 -146 15 -111 6 -131 11 -180 36 -86
45 -110 65 -110 87 0 26 28 57 51 57 10 0 20 4 23 9 3 4 26 11 51 13 25 3 54
13 64 22 10 9 25 16 34 16 9 0 17 7 17 15 0 9 9 15 24 15 13 0 37 7 52 15 16
8 50 15 77 15 43 0 49 -3 58 -27z m-989 -11 c17 -17 -10 -24 -78 -20 -45 2
-60 7 -62 19 -2 14 7 16 63 14 37 -1 71 -7 77 -13z m-542 -20 c25 -28 50 -71
50 -82 0 -19 -40 9 -50 35 -5 13 -14 26 -19 30 -13 7 -15 35 -3 35 4 0 14 -8
22 -18z m140 -53 c0 -19 -5 -29 -15 -29 -15 0 -22 50 -9 63 12 12 24 -4 24
-34z m150 5 c0 -11 -5 -14 -16 -10 -9 3 -20 6 -25 6 -6 0 -7 5 -4 10 10 16 45
12 45 -6z m-493 -130 c13 -25 20 -50 17 -55 -7 -12 -45 -11 -64 1 -12 8 -13
13 -2 30 6 11 12 31 12 45 0 37 12 30 37 -21z m-67 -78 c0 -17 31 -26 93 -26
32 0 47 -4 47 -13 0 -44 -75 -50 -132 -11 -35 25 -48 51 -32 67 9 9 24 -2 24
-17z"/>
<path d="M3880 4808 c-66 -31 -138 -108 -100 -108 12 0 48 19 73 39 12 10 44
14 119 12 118 -2 217 -26 300 -71 10 -6 26 -10 36 -10 10 0 27 -7 38 -15 10
-8 25 -15 32 -15 26 0 98 -39 133 -72 41 -38 70 -79 106 -146 36 -69 80 -98
67 -44 -19 81 -94 194 -173 263 -34 31 -127 82 -196 110 -11 4 -41 17 -67 28
-26 12 -55 21 -65 21 -10 0 -36 7 -58 15 -62 22 -191 19 -245 -7z"/>
<path d="M4949 4290 c-19 -16 -37 -30 -40 -30 -14 0 -59 -51 -101 -111 -41
-60 -109 -191 -158 -304 -12 -27 -32 -73 -45 -100 -13 -28 -27 -64 -31 -80 -4
-17 -11 -35 -16 -42 -5 -7 -8 -40 -5 -75 12 -152 28 -273 37 -282 6 -6 10 -19
10 -31 0 -26 42 -114 66 -140 11 -11 28 -33 38 -50 11 -16 37 -52 59 -78 34
-41 42 -46 54 -34 12 12 8 26 -31 103 -52 104 -72 150 -81 184 -3 14 -10 34
-15 45 -4 11 -13 40 -20 65 -6 25 -16 63 -22 85 -19 71 -14 222 11 294 11 35
25 69 30 75 5 6 11 22 13 35 1 14 9 26 16 29 16 5 15 -17 -2 -50 -22 -41 -29
-152 -17 -243 6 -44 14 -98 17 -120 9 -70 14 -85 28 -85 8 0 18 22 25 58 6 31
15 63 20 71 10 16 31 6 31 -15 0 -28 28 -14 34 18 4 22 1 37 -11 50 -13 14
-14 23 -5 41 20 42 23 64 8 76 -12 10 -19 5 -40 -26 -14 -21 -26 -43 -26 -49
0 -15 -37 -47 -42 -37 -12 21 24 238 47 288 7 17 21 66 30 110 10 44 21 89 26
100 4 11 11 31 14 45 15 58 43 99 90 135 58 44 89 81 80 95 -11 18 -42 10 -76
-20z"/>
<path d="M2489 4089 c-7 -15 -17 -19 -32 -15 -13 3 -29 -2 -39 -11 -20 -18
-58 -96 -58 -119 0 -7 -7 -35 -16 -61 -9 -26 -20 -82 -25 -123 -4 -41 -15
-120 -24 -174 l-17 -99 26 -26 c23 -23 36 -26 104 -29 62 -3 86 0 113 15 74
40 147 95 208 157 63 64 64 65 58 111 -2 26 -9 50 -14 54 -14 9 -113 140 -147
194 -17 26 -34 47 -38 47 -4 0 -8 7 -8 15 0 24 16 17 46 -20 16 -20 37 -45 47
-57 9 -12 17 -27 17 -34 0 -7 6 -17 13 -21 8 -4 16 -16 20 -25 9 -24 27 -23
27 2 0 28 -57 129 -94 166 -38 38 -102 74 -133 74 -12 0 -27 -9 -34 -21z"/>
<path d="M3417 4054 c-109 -29 -177 -123 -179 -244 -1 -62 35 -264 62 -340 4
-14 11 -37 14 -51 6 -27 88 -119 124 -138 12 -6 59 -8 125 -4 77 4 115 2 138
-7 49 -21 223 -19 284 3 59 21 118 48 125 56 3 3 24 19 48 34 118 76 165 142
165 228 -1 82 -55 179 -99 179 -9 0 -35 16 -58 35 -24 19 -48 35 -55 35 -6 0
-11 4 -11 8 0 10 -62 38 -105 48 -16 4 -34 10 -40 14 -5 4 -29 11 -52 15 -24
4 -45 11 -49 16 -3 5 -13 9 -22 9 -9 0 -29 6 -43 14 -14 7 -42 16 -61 20 -20
4 -56 17 -80 29 -52 28 -140 57 -165 56 -10 -1 -40 -7 -66 -15z"/>
<path d="M2980 3682 c0 -18 42 -62 59 -62 21 0 19 19 -6 48 -29 36 -53 42 -53
14z"/>
<path d="M3020 3580 c0 -6 5 -16 10 -23 37 -44 50 -61 50 -66 0 -11 69 -81 79
-81 35 0 -16 88 -93 161 -22 21 -46 25 -46 9z"/>
<path d="M2705 3535 c-16 -14 -39 -28 -50 -31 -27 -9 -117 -102 -110 -114 4
-6 17 -3 33 7 76 48 186 146 175 156 -10 11 -16 8 -48 -18z"/>
<path d="M2986 3531 c-7 -11 3 -41 14 -41 4 0 10 -8 14 -17 3 -10 11 -27 18
-37 7 -11 41 -62 75 -115 34 -53 68 -104 77 -113 9 -10 16 -22 16 -28 0 -5 7
-10 15 -10 8 0 15 6 15 14 0 15 -30 77 -41 86 -4 3 -9 15 -13 28 -4 12 -12 22
-17 22 -5 0 -9 6 -9 14 0 8 -6 21 -13 28 -7 7 -25 33 -40 58 -27 46 -89 120
-100 120 -3 0 -8 -4 -11 -9z"/>
<path d="M2896 3444 c-22 -56 19 -491 50 -540 35 -53 77 -94 98 -94 44 0 108
27 142 59 29 28 34 39 29 60 -4 14 -12 33 -19 41 -21 25 -111 181 -138 240
-14 30 -42 89 -62 131 -20 42 -36 79 -36 84 0 10 -32 34 -46 35 -7 0 -15 -7
-18 -16z"/>
<path d="M2727 3382 c-31 -31 -41 -53 -54 -108 -8 -38 -31 -102 -49 -142 -39
-83 -40 -89 -18 -120 10 -15 25 -22 48 -22 22 0 48 -11 79 -35 47 -36 71 -42
97 -25 12 8 13 14 1 46 -9 26 -14 101 -16 238 l-3 201 -23 3 c-17 2 -35 -9
-62 -36z"/>
<path d="M1820 3215 c0 -8 7 -15 15 -15 8 0 15 7 15 15 0 8 -7 15 -15 15 -8 0
-15 -7 -15 -15z"/>
<path d="M4349 2889 c-19 -23 -42 -50 -51 -62 -31 -35 -18 -53 14 -19 9 9 22
22 28 27 5 6 18 20 28 32 9 13 31 26 47 29 27 5 32 2 44 -28 7 -18 16 -51 20
-73 5 -31 10 -40 26 -40 18 0 20 6 17 55 -3 48 -7 58 -39 87 -51 48 -89 45
-134 -8z"/>
<path d="M3720 2380 c0 -13 7 -20 18 -20 24 0 32 8 25 26 -8 22 -43 17 -43 -6z"/>
<path d="M3986 1813 c-3 -4 -6 -17 -6 -30 0 -19 5 -23 30 -23 19 0 30 5 30 14
0 16 -45 48 -54 39z"/>
<path d="M1696 2751 c-22 -24 -20 -28 12 -34 16 -3 43 -20 61 -36 18 -17 37
-31 42 -31 5 0 9 -24 9 -54 0 -51 -3 -57 -42 -97 -40 -40 -47 -44 -105 -47
-35 -3 -63 -9 -63 -14 0 -21 46 -47 83 -48 34 0 37 -2 37 -29 0 -16 6 -31 15
-35 8 -3 15 -16 15 -30 0 -13 7 -26 15 -30 8 -3 15 -11 15 -18 0 -8 14 -28 30
-46 17 -18 30 -37 30 -43 0 -5 5 -9 10 -9 6 0 24 -13 40 -30 16 -16 33 -30 37
-30 5 0 23 -13 41 -30 18 -16 39 -30 46 -30 8 0 19 -7 26 -15 14 -16 70 -21
70 -6 0 5 -10 13 -21 16 -30 10 -169 105 -169 116 0 5 -5 9 -12 9 -16 0 -68
50 -68 66 0 6 -7 14 -15 18 -8 3 -15 12 -15 20 0 7 -7 16 -15 20 -8 3 -15 16
-15 30 0 13 -6 26 -14 29 -16 6 -27 65 -13 74 5 3 23 -11 41 -31 17 -21 35
-34 39 -30 11 11 8 42 -4 46 -15 5 -16 105 -1 120 20 20 15 132 -8 170 -37 64
-107 99 -134 69z"/>
<path d="M1567 2653 c-20 -77 -22 -129 -6 -138 5 -4 15 -19 20 -33 9 -24 12
-25 22 -11 8 11 11 54 9 132 -4 137 -18 153 -45 50z"/>
<path d="M1632 2498 c7 -19 38 -22 38 -4 0 10 -9 16 -21 16 -12 0 -19 -5 -17
-12z"/>
<path d="M1515 2184 c-22 -13 -47 -27 -55 -30 -19 -9 -59 -56 -60 -70 0 -6 -7
-17 -15 -24 -8 -7 -15 -25 -15 -40 0 -15 -6 -33 -14 -39 -15 -13 -27 -81 -19
-111 10 -38 33 -23 33 23 0 23 7 55 15 71 8 15 15 35 15 43 0 17 33 65 77 111
l32 34 100 -1 c55 0 113 -4 128 -7 32 -8 95 -46 123 -74 21 -21 28 -70 10 -70
-6 0 -15 -11 -20 -25 -5 -14 -14 -25 -19 -25 -5 0 -23 -22 -41 -50 -18 -27
-38 -50 -46 -50 -8 0 -14 -4 -14 -10 0 -5 -7 -10 -15 -10 -11 0 -15 11 -15 40
0 29 -4 40 -15 40 -12 0 -15 -13 -15 -59 0 -40 5 -63 15 -71 8 -7 15 -19 15
-27 0 -18 94 -113 112 -113 8 0 25 -8 38 -17 34 -24 162 -24 188 0 10 10 27
17 37 17 20 0 105 66 105 81 0 11 41 72 53 77 4 2 7 12 7 22 0 9 7 23 15 30
19 16 19 30 1 30 -17 0 -76 -72 -76 -92 0 -18 -103 -118 -122 -118 -8 0 -29
-7 -46 -15 -32 -16 -127 -12 -138 6 -3 5 -17 9 -32 9 -35 0 -112 67 -112 97 0
34 11 53 29 53 26 0 85 64 112 121 13 27 27 49 31 49 15 0 8 61 -7 66 -8 4
-15 17 -15 30 0 14 -7 27 -15 30 -8 4 -15 11 -15 18 -1 6 -31 26 -68 44 -60
29 -76 32 -147 31 -65 -1 -88 -6 -120 -25z"/>
<path d="M1724 2045 c-10 -8 -37 -15 -60 -15 -22 0 -44 -3 -47 -7 -12 -12 42
-52 75 -55 24 -2 34 -9 38 -26 3 -13 10 -22 15 -20 11 3 12 31 2 70 -7 26 -6
27 28 21 28 -5 35 -2 35 11 0 9 -12 21 -26 26 -33 13 -37 13 -60 -5z"/>
<path d="M1451 1921 c-39 -35 -52 -53 -48 -66 6 -14 17 -6 62 40 52 54 65 75
48 75 -5 0 -32 -22 -62 -49z"/>
<path d="M1570 1938 c-21 -34 -26 -73 -11 -82 11 -7 47 33 56 62 3 12 13 22
21 22 8 0 14 7 14 15 0 10 -10 15 -30 15 -23 0 -35 -7 -50 -32z"/>
<path d="M1478 1869 c-10 -5 -18 -18 -18 -29 0 -10 -15 -28 -35 -40 -19 -12
-35 -26 -35 -30 0 -15 82 -32 127 -27 84 9 94 50 12 46 -27 -2 -51 0 -54 3 -3
3 3 22 15 42 27 50 25 57 -12 35z"/>
</g>
</svg>
